HIERARCHY
ROOT Hips
{
	OFFSET -0.001795 -0.223333 0.028219
	CHANNELS 6 Xposition Yposition Zposition Zrotation Yrotation Xrotation 
	JOINT LeftUpLeg
	{
		OFFSET 0.069520 -0.091406 -0.006815
		CHANNELS 3 Zrotation Yrotation Xrotation
		JOINT LeftLeg
		{
			OFFSET 0.034277 -0.375199 -0.004496
			CHANNELS 3 Zrotation Yrotation Xrotation
			JOINT LeftFoot
			{
				OFFSET -0.013596 -0.397961 -0.043693
				CHANNELS 3 Zrotation Yrotation Xrotation
				JOINT LeftToe
				{
					OFFSET 0.026358 -0.055791 0.119288
					CHANNELS 3 Zrotation Yrotation Xrotation
					End Site
					{
						OFFSET 0.000000 0.000000 0.000000
					}
				}
			}
		}
	}
	JOINT RightUpLeg
	{
		OFFSET -0.067670 -0.090522 -0.004320
		CHANNELS 3 Zrotation Yrotation Xrotation
		JOINT RightLeg
		{
			OFFSET -0.038290 -0.382569 -0.008850
			CHANNELS 3 Zrotation Yrotation Xrotation
			JOINT RightFoot
			{
				OFFSET 0.015774 -0.398415 -0.042312
				CHANNELS 3 Zrotation Yrotation Xrotation
				JOINT RightToe
				{
					OFFSET -0.025372 -0.048144 0.123348
					CHANNELS 3 Zrotation Yrotation Xrotation
					End Site
					{
						OFFSET 0.000000 0.000000 0.000000
					}
				}
			}
		}
	}
	JOINT Spine
	{
		OFFSET -0.002533 0.108963 -0.026696
		CHANNELS 3 Zrotation Yrotation Xrotation
		JOINT Spine1
		{
			OFFSET 0.005487 0.135180 0.001092
			CHANNELS 3 Zrotation Yrotation Xrotation
			JOINT Spine2
			{
				OFFSET 0.001457 0.052922 0.025425
				CHANNELS 3 Zrotation Yrotation Xrotation
				JOINT Neck
				{
					OFFSET -0.002778 0.213870 -0.042857
					CHANNELS 3 Zrotation Yrotation Xrotation
					JOINT Head
					{
						OFFSET 0.005152 0.064970 0.051349
						CHANNELS 3 Zrotation Yrotation Xrotation
						End Site
						{
							OFFSET 0.000000 0.000000 0.000000
						}
					}
				}
				JOINT LeftShoulder
				{
					OFFSET 0.078845 0.121749 -0.034090
					CHANNELS 3 Zrotation Yrotation Xrotation
					JOINT LeftArm
					{
						OFFSET 0.090977 0.030469 -0.008868
						CHANNELS 3 Zrotation Yrotation Xrotation
						JOINT LeftForeArm
						{
							OFFSET 0.259612 -0.012772 -0.027456
							CHANNELS 3 Zrotation Yrotation Xrotation
							JOINT LeftHand
							{
								OFFSET 0.249234 0.008986 -0.001171
								CHANNELS 3 Zrotation Yrotation Xrotation
								End Site
								{
									OFFSET 0.000000 0.000000 0.000000
								}
							}
						}
					}
				}
				JOINT RightShoulder
				{
					OFFSET -0.081759 0.118833 -0.038615
					CHANNELS 3 Zrotation Yrotation Xrotation
					JOINT RightArm
					{
						OFFSET -0.096012 0.032551 -0.009143
						CHANNELS 3 Zrotation Yrotation Xrotation
						JOINT RightForeArm
						{
							OFFSET -0.253742 -0.013329 -0.021401
							CHANNELS 3 Zrotation Yrotation Xrotation
							JOINT RightHand
							{
								OFFSET -0.255298 0.007772 -0.005559
								CHANNELS 3 Zrotation Yrotation Xrotation
								End Site
								{
									OFFSET 0.000000 0.000000 0.000000
								}
							}
						}
					}
				}
			}
		}
	}
}
MOTION
Frames: 7
Frame Time: 0.050000
0.000000 0.943241 0.000000 -2.307974 3.826185 7.274766 6.886407 -0.370044 -3.353933 2.423390 0.116244 -6.677403 0.648539 6.219621 12.390776 0.000000 0.000000 0.000000 -4.848092 0.558990 -6.808407 0.719112 -0.165666 -2.602282 -1.273784 -8.217301 18.144302 0.000000 0.000000 0.000000 1.462564 0.260361 -6.172463 0.637958 -0.104414 -4.534302 -0.618375 -0.632003 4.047069 1.230408 -0.129717 -8.391324 0.000000 0.000000 0.000000 -14.880248 3.770946 -3.553387 -59.007279 -5.821749 -4.103067 -7.516292 -16.206273 1.617561 0.000000 0.000000 0.000000 13.015913 -4.317469 -3.000728 63.130621 5.626027 -2.915482 3.926180 14.497724 0.923487 0.000000 0.000000 0.000000 
-0.000033 0.942299 -0.000097 -2.549541 2.320744 7.796963 6.392605 -0.341846 -3.052541 3.538663 0.122719 -7.590883 1.416693 7.337662 12.632451 0.000000 0.000000 0.000000 -4.933295 0.628812 -7.692300 1.122612 -0.196633 -2.558109 -0.588510 -7.261652 17.852286 0.000000 0.000000 0.000000 2.037714 0.291043 -6.410215 -0.322372 0.292660 -4.874784 0.247024 -0.072128 3.582311 0.315711 0.439449 -7.974063 0.000000 0.000000 0.000000 -16.194495 5.375596 -4.486869 -58.411749 -5.244670 -4.270968 -7.884916 -16.325664 1.692306 0.000000 0.000000 0.000000 12.570498 -4.916837 -3.313836 63.492351 4.888531 -3.291615 3.894937 15.002190 0.942133 0.000000 0.000000 0.000000 
0.000002 0.942030 -0.000276 -2.162826 2.874762 7.507779 6.221578 -0.332217 -2.783338 3.165702 0.146007 -7.751771 1.088366 6.864230 12.568361 0.000000 0.000000 0.000000 -5.312311 0.588803 -7.381660 1.112373 -0.190438 -2.341233 -0.911200 -7.656332 17.619826 0.000000 0.000000 0.000000 1.559288 0.248427 -5.814104 0.105512 0.171903 -6.370525 -0.501347 -0.784095 4.127396 0.071863 0.622263 -8.345168 0.000000 0.000000 0.000000 -15.524368 4.949200 -4.108353 -58.981653 -4.911612 -4.543419 -6.805016 -15.957863 1.516257 0.000000 0.000000 0.000000 14.165817 -4.416995 -3.310936 61.816799 5.019085 -3.238719 3.677261 14.185264 0.859324 0.000000 0.000000 0.000000 
0.000071 0.941777 -0.000337 -2.571507 2.132751 7.691050 6.141238 -0.327724 -2.856846 3.984998 0.111548 -7.676623 1.529354 7.469982 12.529131 0.000000 0.000000 0.000000 -5.221250 0.660095 -8.453948 1.631712 -0.202230 -1.078794 -0.604372 -7.212692 17.399781 0.000000 0.000000 0.000000 1.842764 0.258319 -5.836283 -0.685957 0.476378 -6.297393 0.571750 -1.662587 3.441697 -0.641322 0.965977 -7.465034 0.000000 0.000000 0.000000 -15.118042 5.987984 -4.298628 -60.133067 -4.808899 -4.565518 -6.036482 -15.797280 1.433410 0.000000 0.000000 0.000000 12.809989 -4.285810 -3.313732 62.143858 5.203014 -3.158715 4.540409 14.220313 0.915858 0.000000 0.000000 0.000000 
0.000023 0.942060 -0.000410 -2.438942 2.499848 7.478557 6.012638 -0.319443 -2.650593 4.013222 0.118830 -7.797408 1.295935 7.165182 12.609089 0.000000 0.000000 0.000000 -5.301206 0.643042 -8.343446 1.575513 -0.189458 -0.740313 -0.790075 -7.462958 17.382620 0.000000 0.000000 0.000000 1.644056 0.246011 -5.680756 -0.298060 0.321467 -6.134592 0.187209 -2.056165 3.429000 -0.916587 1.192655 -8.190098 0.000000 0.000000 0.000000 -14.805369 5.619229 -4.052079 -60.136891 -5.097100 -4.416055 -6.369473 -15.269018 1.428052 0.000000 0.000000 0.000000 12.652274 -4.307801 -3.314791 62.155162 5.719570 -2.892519 5.205609 13.832672 0.952427 0.000000 0.000000 0.000000 
-0.000002 0.942629 -0.000430 -2.537254 1.834121 7.614385 5.821739 -0.310126 -2.651394 4.427282 0.101695 -7.781505 1.600130 7.648067 12.888789 0.000000 0.000000 0.000000 -5.294334 0.680878 -8.871566 1.672147 -0.185949 -0.290802 -0.457605 -7.032246 17.470003 0.000000 0.000000 0.000000 1.663284 0.256059 -5.806045 -0.347473 0.342753 -6.544932 0.500848 -2.179390 3.937543 -0.916387 1.138891 -7.834571 0.000000 0.000000 0.000000 -14.827772 5.912031 -4.094726 -60.123101 -4.785963 -4.599131 -7.141519 -15.831703 1.608936 0.000000 0.000000 0.000000 11.733431 -4.224474 -3.205161 62.395184 5.917681 -2.892027 6.060164 13.848358 1.030372 0.000000 0.000000 0.000000 
-0.000094 0.942831 -0.000503 -2.504566 2.001584 7.597737 5.645457 -0.312569 -2.727746 4.714658 0.085547 -7.695183 1.505696 7.530275 12.927020 0.000000 0.000000 0.000000 -5.267044 0.687769 -9.037228 1.591447 -0.168875 0.082108 -0.553339 -7.166473 17.465507 0.000000 0.000000 0.000000 1.564768 0.247768 -5.690217 -0.199337 0.281822 -6.412031 0.343701 -2.670315 3.933757 -1.015234 1.205389 -8.232343 0.000000 0.000000 0.000000 -14.546150 6.008646 -4.042442 -59.646569 -4.341397 -4.770091 -9.173796 -17.113925 2.059318 0.000000 0.000000 0.000000 11.251490 -3.673082 -2.928321 62.481581 5.804437 -2.985731 6.810371 14.408401 1.149927 0.000000 0.000000 0.000000 
